# xmcd
#
# Track frame offsets:
#	150
#	14311
#	25607
#	41043
#	55648
#	67836
#	78969
#	93167
#	105767
#	117607
#	130862
#	142912
#	156722
#	172130
#	186327
#	198631
#	214553
#	226373
#	239778
#	254402
#
# Disc length: 3556
#
# Revision: 2
# Processed by: cddbd v1.5.1PL0 Copyright (c) Steve Scherf et al.
# Submitted via: audiograbber 1.80
# Normalized: r1:DSETVAR1
#
DISCID=140de214
DTITLE=Various Artist - The Great Blues Singers Disc 3
DYEAR=1900
DGENRE=
TTITLE0=Leadbelly - Midnight Special
TTITLE1=John Lee Hooker - Boom Boom
TTITLE2=Muddy Waters - Country Blues
TTITLE3=Dr Clayton - Cheatin' And Lyin' Blues
TTITLE4=Sonny Boy Williamson - New Early In The Morning
TTITLE5=Cripled Clarence Lofton - Pitchin' Boogie
TTITLE6=Bessie Smith - Young Woman's Blues
TTITLE7=Memphis Jug Band - Gater Wobble
TTITLE8=Robert Johnson - Hell Hound On My Trail
TTITLE9=Willie Brown - Future Blues
TTITLE10=Ida Cox - Chicago Bound Blues
TTITLE11=Bumble Bee Slim - Feather Bed Blues
TTITLE12=Bessie Tucker - Fort Worth And Denver Blues
TTITLE13=Curley Weaver - No No Blues
TTITLE14=Chippie Hill - Trouble In Mind
TTITLE15=Montana Taylor - Indiana Avenue Stomp
TTITLE16=Red Nelson - Crying Mother Blues
TTITLE17=Johnny Temple - Louise Louise Blues
TTITLE18=Clara Smith - Whip It To Jelly
TTITLE19=Tommy McClennan - Baby Please Don't Tell On Me
EXTD=
EXTT0=
EXTT1=
EXTT2=
EXTT3=
EXTT4=
EXTT5=
EXTT6=
EXTT7=
EXTT8=
EXTT9=
EXTT10=
EXTT11=
EXTT12=
EXTT13=
EXTT14=
EXTT15=
EXTT16=
EXTT17=
EXTT18=
EXTT19=
PLAYORDER=
